<?xml version="1.0" encoding="utf-8"?>
<svg version="1.1" id="Livello_1" xmlns="http://www.w3.org/2000/svg" xmlns:xlink="http://www.w3.org/1999/xlink" x="0px" y="0px"
	 viewBox="0 0 101.8 139.3" style="enable-background:new 0 0 101.8 139.3;" xml:space="preserve">
<g id="Livello_110">
	<path d="M75.4,50.6C75.4,64.6,64,76,49.9,76c-14.1,0-25.4-11.3-25.4-25.3c0-14,11.4-25.3,25.4-25.3C64,25.3,75.4,36.7,75.4,50.6
		 M101.8,50.6C101.8,22.7,79,0,50.9,0C22.8,0,0,22.7,0,50.6C0,62.9,4.4,74.2,11.7,83l39.2,56.3l39.8-57.1c1.4-1.8,2.7-3.7,3.9-5.6
		L95,76h-0.1C99.3,68.5,101.8,59.9,101.8,50.6"/>
</g>
</svg>
