<?xml version="1.0" encoding="utf-8"?>
<!-- Generator: Adobe Illustrator 21.0.2, SVG Export Plug-In . SVG Version: 6.00 Build 0)  -->
<svg version="1.1" id="Слой_1" xmlns="http://www.w3.org/2000/svg" xmlns:xlink="http://www.w3.org/1999/xlink" x="0px" y="0px"
	 viewBox="0 0 291.6 165.3" style="enable-background:new 0 0 291.6 165.3;" xml:space="preserve">
<style type="text/css">
	.st0{fill:none;stroke:#000000;stroke-width:6;stroke-linecap:round;stroke-miterlimit:10;}
	.st1{font-family:'Haettenschweiler';}
	.st2{font-size:100px;}
	.st3{font-family:'BellMT';}
	.st4{font-family:'ArialMT';}
</style>
<line class="st0" x1="3" y1="83.2" x2="288.6" y2="83.2"/>
<text transform="matrix(1 0 0 1 3.0181 165.3392)" class="st1 st2">M</text>
<text transform="matrix(1 0 0 1 3.0181 71)" class="st3 st2">Siberia</text>
<g>
	<path d="M91,115.3c-13.8,0-25,11.2-25,25s11.2,25,25,25c13.8,0,25-11.2,25-25S104.8,115.3,91,115.3z M91,158.1
		c-9.8,0-17.8-7.9-17.8-17.8c0-9.8,7.9-17.8,17.8-17.8c9.8,0,17.8,7.9,17.8,17.8C108.8,150.1,100.8,158.1,91,158.1z"/>
	<path d="M91,124.9c-8.5,0-15.5,6.9-15.5,15.5s6.9,15.5,15.5,15.5s15.5-6.9,15.5-15.5S99.5,124.9,91,124.9z M104.5,139.4H97
		c-0.2-0.9-0.5-1.8-1.1-2.6l5.3-5.3C103.1,133.6,104.3,136.4,104.5,139.4z M92,126.9c3,0.2,5.7,1.4,7.9,3.3l-5.3,5.3
		c-0.7-0.5-1.6-0.9-2.6-1.1L92,126.9L92,126.9z M90,126.9v7.5c-0.9,0.2-1.8,0.5-2.6,1.1l-5.3-5.3C84.3,128.3,87,127.1,90,126.9z
		 M80.8,131.5l5.3,5.3c-0.5,0.7-0.9,1.6-1.1,2.6h-7.5C77.7,136.4,78.9,133.6,80.8,131.5z M77.5,141.3H85c0.2,0.9,0.5,1.8,1.1,2.6
		l-5.3,5.3C78.9,147,77.7,144.3,77.5,141.3z M90,153.8c-3-0.2-5.7-1.4-7.9-3.3l5.3-5.3c0.7,0.5,1.6,0.9,2.6,1.1V153.8z M90,144.3
		L90,144.3c-0.4-0.1-0.8-0.3-1.2-0.5l0,0c-0.6-0.3-1-0.8-1.4-1.4l0,0c-0.2-0.4-0.4-0.8-0.5-1.2h0c-0.1-0.3-0.1-0.6-0.1-1
		c0-0.3,0-0.7,0.1-1h0c0.1-0.4,0.3-0.8,0.5-1.2l0,0c0.3-0.6,0.8-1,1.4-1.4l0,0c0.4-0.2,0.8-0.4,1.2-0.5v0c0.3-0.1,0.6-0.1,1-0.1
		c0.3,0,0.7,0,1,0.1v0c0.4,0.1,0.8,0.3,1.2,0.5l0,0c0.6,0.3,1,0.8,1.4,1.4l0,0c0.2,0.4,0.4,0.8,0.5,1.2h0c0.1,0.3,0.1,0.6,0.1,1
		c0,0.3,0,0.7-0.1,1h0c-0.1,0.4-0.3,0.8-0.5,1.2l0,0c-0.3,0.6-0.8,1-1.4,1.4l0,0c-0.4,0.2-0.8,0.4-1.2,0.5v0c-0.3,0.1-0.6,0.1-1,0.1
		S90.3,144.4,90,144.3z M92,153.8v-7.5c0.9-0.2,1.8-0.5,2.6-1.1l5.3,5.3C97.7,152.4,95,153.6,92,153.8z M101.2,149.2l-5.3-5.3
		c0.5-0.7,0.9-1.6,1.1-2.6h7.5C104.3,144.3,103.1,147,101.2,149.2z"/>
</g>
<g>
	<path d="M184.9,115.3c-13.8,0-25,11.2-25,25s11.2,25,25,25c13.8,0,25-11.2,25-25S198.7,115.3,184.9,115.3z M184.9,158.1
		c-9.8,0-17.8-7.9-17.8-17.8c0-9.8,7.9-17.8,17.8-17.8c9.8,0,17.8,7.9,17.8,17.8C202.7,150.1,194.7,158.1,184.9,158.1z"/>
	<path d="M184.9,124.9c-8.5,0-15.5,6.9-15.5,15.5s6.9,15.5,15.5,15.5s15.5-6.9,15.5-15.5S193.4,124.9,184.9,124.9z M198.4,139.4
		h-7.5c-0.2-0.9-0.5-1.8-1.1-2.6l5.3-5.3C197,133.6,198.2,136.4,198.4,139.4z M185.9,126.9c3,0.2,5.7,1.4,7.9,3.3l-5.3,5.3
		c-0.7-0.5-1.6-0.9-2.6-1.1V126.9L185.9,126.9z M183.9,126.9v7.5c-0.9,0.2-1.8,0.5-2.6,1.1l-5.3-5.3
		C178.2,128.3,181,127.1,183.9,126.9z M174.7,131.5l5.3,5.3c-0.5,0.7-0.9,1.6-1.1,2.6h-7.5C171.7,136.4,172.9,133.6,174.7,131.5z
		 M171.4,141.3h7.5c0.2,0.9,0.5,1.8,1.1,2.6l-5.3,5.3C172.8,147,171.6,144.3,171.4,141.3z M183.9,153.8c-3-0.2-5.7-1.4-7.9-3.3
		l5.3-5.3c0.7,0.5,1.6,0.9,2.6,1.1V153.8z M183.9,144.3L183.9,144.3c-0.4-0.1-0.8-0.3-1.2-0.5l0,0c-0.6-0.3-1-0.8-1.4-1.4l0,0
		c-0.2-0.4-0.4-0.8-0.5-1.2h0c-0.1-0.3-0.1-0.6-0.1-1s0-0.7,0.1-1h0c0.1-0.4,0.3-0.8,0.5-1.2l0,0c0.3-0.6,0.8-1,1.4-1.4l0,0
		c0.4-0.2,0.8-0.4,1.2-0.5v0c0.3-0.1,0.6-0.1,1-0.1s0.7,0,1,0.1v0c0.4,0.1,0.8,0.3,1.2,0.5l0,0c0.6,0.3,1,0.8,1.4,1.4l0,0
		c0.2,0.4,0.4,0.8,0.5,1.2h0c0.1,0.3,0.1,0.6,0.1,1s0,0.7-0.1,1h0c-0.1,0.4-0.3,0.8-0.5,1.2l0,0c-0.3,0.6-0.8,1-1.4,1.4l0,0
		c-0.4,0.2-0.8,0.4-1.2,0.5v0c-0.3,0.1-0.6,0.1-1,0.1S184.3,144.4,183.9,144.3z M185.9,153.8v-7.5c0.9-0.2,1.8-0.5,2.6-1.1l5.3,5.3
		C191.6,152.4,188.9,153.6,185.9,153.8z M195.1,149.2l-5.3-5.3c0.5-0.7,0.9-1.6,1.1-2.6h7.5C198.2,144.3,197,147,195.1,149.2z"/>
</g>
<text transform="matrix(1 0 0 1 121.5 164.6729)" class="st4 st2">t</text>
<text transform="matrix(1 0 0 1 210.75 165.3391)" class="st4 st2">rs</text>
</svg>
