<?xml version="1.0" standalone="no"?>
<!DOCTYPE svg PUBLIC "-//W3C//DTD SVG 20010904//EN"
 "http://www.w3.org/TR/2001/REC-SVG-20010904/DTD/svg10.dtd">
<svg version="1.0" xmlns="http://www.w3.org/2000/svg"
 width="700.000000pt" height="700.000000pt" viewBox="0 0 700.000000 700.000000"
 preserveAspectRatio="xMidYMid meet">
<metadata>
Created by potrace 1.11, written by Peter Selinger 2001-2013
</metadata>
<g transform="translate(0.000000,700.000000) scale(0.100000,-0.100000)"
fill="#000000" stroke="none">
<path d="M3298 6995 c-1 -1 -48 -6 -102 -9 -55 -4 -102 -8 -105 -10 -3 -2 -35
-7 -70 -10 -35 -4 -85 -11 -110 -16 -25 -5 -57 -12 -71 -14 -134 -24 -259 -56
-405 -103 -100 -32 -155 -52 -310 -115 -240 -97 -654 -349 -836 -508 -10 -8
-42 -35 -73 -60 -91 -75 -345 -338 -439 -455 -299 -373 -513 -785 -643 -1240
-19 -66 -37 -131 -39 -145 -3 -14 -7 -36 -10 -50 -33 -148 -61 -332 -73 -470
-9 -114 -8 -507 1 -600 37 -361 114 -678 239 -990 52 -129 168 -368 213 -439
14 -23 25 -43 25 -47 0 -13 206 -307 287 -409 48 -60 160 -182 248 -271 312
-314 651 -550 1045 -726 47 -21 94 -42 105 -47 199 -89 635 -206 847 -227 35
-3 66 -8 69 -9 15 -10 227 -20 409 -20 187 0 339 7 430 21 358 53 613 121 900
238 958 394 1698 1201 2009 2191 58 186 111 422 126 565 4 30 8 61 11 68 24
74 24 781 -1 821 -1 4 -6 33 -9 66 -3 33 -8 69 -10 80 -2 11 -11 61 -21 110
-153 819 -623 1579 -1301 2106 -96 75 -309 219 -324 219 -5 0 -10 5 -10 10 0
6 -5 10 -10 10 -6 0 -29 12 -52 26 -66 42 -290 151 -416 203 -282 115 -619
203 -912 236 -30 4 -68 8 -85 11 -35 5 -522 14 -527 9z m417 -1019 c144 -13
267 -34 397 -67 93 -23 276 -84 338 -112 147 -65 218 -101 297 -147 705 -415
1151 -1116 1229 -1930 13 -143 8 -425 -12 -550 -61 -402 -182 -723 -389 -1035
-192 -290 -460 -556 -730 -724 -159 -100 -213 -129 -353 -190 -492 -216 -1079
-264 -1602 -131 -604 155 -1120 522 -1465 1045 -307 464 -443 993 -402 1561 4
55 9 109 11 120 2 10 7 42 10 69 13 94 57 275 97 396 176 530 517 976 985
1288 352 235 753 374 1174 407 41 3 76 7 77 8 5 4 276 -2 338 -8z"/>
<path d="M3427 5664 c-1 -1 -40 -4 -87 -8 -346 -24 -701 -140 -990 -324 -67
-43 -233 -168 -280 -212 -97 -90 -120 -113 -184 -184 -167 -185 -295 -391
-390 -622 -50 -124 -108 -323 -126 -434 -6 -41 -13 -86 -16 -100 -24 -151 -21
-445 7 -605 63 -369 187 -669 388 -940 61 -83 198 -246 222 -265 4 -3 42 -37
85 -76 194 -176 414 -313 654 -407 117 -46 307 -101 390 -112 24 -4 47 -8 50
-10 3 -1 25 -6 50 -9 560 -74 1117 66 1565 393 73 53 254 206 275 232 3 4 35
40 72 80 232 258 400 573 487 914 19 77 43 212 56 323 8 70 9 312 1 380 -3 28
-9 76 -12 105 -29 271 -155 622 -312 867 -84 132 -257 341 -351 425 -19 16
-39 35 -45 41 -34 33 -183 147 -258 197 -285 189 -671 321 -1004 343 -97 6
-243 11 -247 8z m-62 -803 l0 -522 -25 -5 c-105 -23 -214 -67 -295 -118 l-40
-25 -367 367 c-203 202 -368 370 -368 373 0 8 98 85 181 141 176 120 445 236
629 272 159 31 235 42 265 41 20 -2 20 -9 20 -524z m385 514 c30 -3 71 -10 90
-15 19 -5 51 -12 70 -15 207 -35 560 -199 738 -343 20 -17 48 -39 62 -51 l25
-20 -370 -370 -369 -370 -25 16 c-86 56 -203 104 -311 127 l-25 5 1 518 c1
285 2 521 3 524 1 5 12 5 111 -6z m-961 -1413 c-12 -20 -29 -50 -39 -67 -24
-42 -68 -163 -76 -208 -3 -20 -10 -40 -16 -43 -7 -4 -918 -8 -1030 -5 -12 1
-16 8 -13 24 2 12 6 45 9 72 39 330 170 644 384 923 l63 82 370 -370 371 -371
-23 -37z m2250 633 c198 -276 304 -562 346 -932 2 -17 -3 -23 -19 -24 -200 -4
-1020 1 -1025 7 -4 5 -16 41 -26 79 -17 68 -58 161 -104 237 l-23 37 369 370
368 370 28 -32 c16 -18 54 -68 86 -112z m-1388 -539 c74 -19 129 -47 199 -101
145 -112 222 -270 221 -452 0 -98 -16 -168 -55 -248 -82 -166 -234 -283 -413
-316 -75 -15 -213 -5 -285 19 -260 87 -425 356 -384 627 13 90 53 192 92 236
8 8 14 19 14 23 0 13 93 100 143 135 131 90 304 118 468 77z m-989 -696 c2 -3
11 -36 21 -75 18 -74 72 -196 108 -247 l22 -30 -371 -371 c-364 -364 -372
-371 -389 -352 -79 87 -182 246 -253 390 -33 68 -60 129 -60 137 0 7 -7 26
-15 42 -15 28 -58 172 -69 226 -2 14 -9 45 -14 70 -6 25 -13 72 -17 105 -3 33
-8 72 -10 86 l-5 25 524 0 c289 -1 526 -3 528 -6z m2722 -12 c-22 -274 -110
-558 -243 -786 -47 -80 -136 -211 -180 -262 l-30 -35 -371 370 -371 371 46 79
c43 76 95 215 95 255 0 10 6 20 13 23 6 2 244 3 527 3 484 -1 515 -2 514 -18z
m-2336 -562 c75 -47 178 -89 282 -114 l35 -8 0 -525 c0 -507 -1 -524 -19 -522
-91 8 -154 15 -168 19 -9 3 -27 7 -40 9 -64 12 -88 18 -153 36 -139 40 -413
157 -423 181 -2 4 -8 8 -14 8 -11 0 -142 86 -189 124 -14 12 -42 34 -62 49
l-36 29 369 369 c203 203 372 369 375 369 3 0 22 -11 43 -24z m1322 -345 l370
-369 -43 -34 c-282 -229 -646 -384 -973 -414 -38 -3 -73 -7 -78 -8 -6 0 -10
201 -10 523 l-1 524 80 21 c89 24 173 61 231 100 21 14 42 26 47 26 4 0 174
-166 377 -369z"/>
</g>
</svg>
