<?xml version="1.0" encoding="utf-8"?>
<svg version="1.1" id="Слой_1" xmlns="http://www.w3.org/2000/svg" xmlns:xlink="http://www.w3.org/1999/xlink" x="0px" y="0px"
	 viewBox="0 0 200 200" style="enable-background:new 0 0 200 200;" xml:space="preserve">
<path d="M133.3,162.5v-20.8c0-1.2-0.4-2.2-1.2-3s-1.8-1.2-3-1.2h-12.5V70.8c0-1.2-0.4-2.2-1.2-3s-1.8-1.2-3-1.2H70.8
	c-1.2,0-2.2,0.4-3,1.2s-1.2,1.8-1.2,3v20.8c0,1.2,0.4,2.2,1.2,3s1.8,1.2,3,1.2h12.5v41.7H70.8c-1.2,0-2.2,0.4-3,1.2s-1.2,1.8-1.2,3
	v20.8c0,1.2,0.4,2.2,1.2,3s1.8,1.2,3,1.2h58.3c1.2,0,2.2-0.4,3-1.2S133.3,163.7,133.3,162.5z M116.7,45.8V25c0-1.2-0.4-2.2-1.2-3
	s-1.8-1.2-3-1.2h-25c-1.2,0-2.2,0.4-3,1.2s-1.2,1.8-1.2,3v20.8c0,1.2,0.4,2.2,1.2,3s1.8,1.2,3,1.2h25c1.2,0,2.2-0.4,3-1.2
	S116.7,47,116.7,45.8z M200,100c0,18.1-4.5,34.9-13.4,50.2c-8.9,15.3-21.1,27.5-36.4,36.4c-15.3,8.9-32.1,13.4-50.2,13.4
	s-34.9-4.5-50.2-13.4c-15.3-8.9-27.5-21.1-36.4-36.4S0,118.1,0,100s4.5-34.9,13.4-50.2s21.1-27.5,36.4-36.4S81.9,0,100,0
	s34.9,4.5,50.2,13.4s27.5,21.1,36.4,36.4C195.5,65.1,200,81.9,200,100z"/>
</svg>
