<?xml version="1.0" encoding="utf-8"?>
<svg version="1.1" id="Слой_1" xmlns="http://www.w3.org/2000/svg" xmlns:xlink="http://www.w3.org/1999/xlink" x="0px" y="0px"
	 viewBox="0 0 24 18" style="enable-background:new 0 0 24 18;" xml:space="preserve">
<g id="icons">
	<path id="email" d="M20,0H4C1.8,0,0,1.8,0,4v10c0,2.2,1.8,4,4,4h16c2.2,0,4-1.8,4-4V4C24,1.8,22.2,0,20,0z M21.6,5.8l-7.9,5.3
		c-0.5,0.3-1.1,0.5-1.7,0.5s-1.2-0.2-1.7-0.5L2.4,5.8C2,5.5,1.9,4.9,2.2,4.4C2.5,4,3.1,3.9,3.6,4.2l7.9,5.3c0.3,0.2,0.8,0.2,1.1,0
		l7.9-5.3C21,3.9,21.6,4,21.9,4.5C22.1,4.9,22,5.5,21.6,5.8z"/>
</g>
</svg>
