<?xml version="1.0" encoding="utf-8"?>
<!-- Generator: Adobe Illustrator 21.0.2, SVG Export Plug-In . SVG Version: 6.00 Build 0)  -->
<svg version="1.1" id="Capa_1" xmlns="http://www.w3.org/2000/svg" xmlns:xlink="http://www.w3.org/1999/xlink" x="0px" y="0px"
	 viewBox="0 0 475.1 511.6" style="enable-background:new 0 0 475.1 511.6;" xml:space="preserve" width="20" height="20">
<g>
	<path d="M464.2,83.9c-7.2-7.2-15.8-10.8-25.7-10.8H402V45.7c0-12.6-4.5-23.3-13.4-32.3C379.6,4.5,368.9,0,356.3,0H338
		c-12.6,0-23.3,4.5-32.3,13.4c-8.9,8.9-13.4,19.7-13.4,32.3v27.4H182.7V45.7c0-12.6-4.5-23.3-13.4-32.3C160.4,4.5,149.6,0,137,0
		h-18.3c-12.6,0-23.3,4.5-32.3,13.4c-8.9,8.9-13.4,19.7-13.4,32.3v27.4H36.5c-9.9,0-18.5,3.6-25.7,10.8C3.6,91.2,0,99.7,0,109.6
		v365.5c0,9.9,3.6,18.5,10.9,25.7c7.2,7.2,15.8,10.8,25.7,10.8h402c9.9,0,18.5-3.6,25.7-10.8c7.2-7.2,10.9-15.8,10.9-25.7V109.6
		C475.1,99.7,471.5,91.2,464.2,83.9z M118.8,475.1H36.5v-82.2h82.2V475.1z M118.8,374.6H36.5v-91.4h82.2V374.6z M118.8,265H36.5
		v-82.2h82.2V265z M112.4,134.3c-1.8-1.8-2.7-3.9-2.7-6.4V45.7c0-2.5,0.9-4.6,2.7-6.4c1.8-1.8,3.9-2.7,6.4-2.7H137
		c2.5,0,4.6,0.9,6.4,2.7c1.8,1.8,2.7,3.9,2.7,6.4v82.2c0,2.5-0.9,4.6-2.7,6.4c-1.8,1.8-3.9,2.7-6.4,2.7h-18.3
		C116.3,137,114.2,136.1,112.4,134.3z M228.4,475.1H137v-82.2h91.4L228.4,475.1L228.4,475.1z M228.4,374.6H137v-91.4h91.4
		L228.4,374.6L228.4,374.6z M228.4,265H137v-82.2h91.4L228.4,265L228.4,265z M338,475.1h-91.4v-82.2H338V475.1z M338,374.6h-91.4
		v-91.4H338V374.6z M338,265h-91.4v-82.2H338V265z M331.6,134.3c-1.8-1.8-2.7-3.9-2.7-6.4V45.7c0-2.5,0.9-4.6,2.7-6.4
		c1.8-1.8,3.9-2.7,6.4-2.7h18.3c2.5,0,4.6,0.9,6.4,2.7c1.8,1.8,2.7,3.9,2.7,6.4v82.2c0,2.5-0.9,4.6-2.7,6.4
		c-1.8,1.8-3.9,2.7-6.4,2.7H338C335.6,137,333.4,136.1,331.6,134.3z M438.5,475.1h-82.2v-82.2h82.2V475.1z M438.5,374.6h-82.2v-91.4
		h82.2V374.6z M438.5,265h-82.2v-82.2h82.2V265z"/>
</g>
</svg>
