<?xml version="1.0" encoding="utf-8"?>
<!-- Generator: Adobe Illustrator 21.0.2, SVG Export Plug-In . SVG Version: 6.00 Build 0)  -->
<svg version="1.1" id="Capa_1" xmlns="http://www.w3.org/2000/svg" xmlns:xlink="http://www.w3.org/1999/xlink" x="0px" y="0px"
	 viewBox="0 0 28 32" style="enable-background:new 0 0 28 32;" xml:space="preserve">
<style type="text/css">
	.st0{fill:#010002;}
</style>
<g>
	<g id="trash">
		<path class="st0" d="M27.98,6.818c-0.096-1.57-1.387-2.816-2.98-2.816h-3v-1V3c0-1.657-1.344-3-3-3H9C7.343,0,6,1.343,6,3v0.001v1
			H3c-1.595,0-2.885,1.246-2.981,2.816H0V8v1c0,1.104,0.896,2,2,2l0,0v17c0,2.209,1.791,4,4,4h16c2.209,0,4-1.791,4-4V11l0,0
			c1.104,0,2-0.896,2-2V8V6.818H27.98z M8,3.001c0-0.553,0.447-1,1-1h10c0.553,0,1,0.447,1,1v1H8V3.001z M24,28.001
			c0,1.102-0.898,2-2,2H6c-1.103,0-2-0.898-2-2v-17h20V28.001z M26,8v1H2V8V7.001c0-0.553,0.447-1,1-1h22c0.553,0,1,0.447,1,1V8z"/>
		<path class="st0" d="M7,28.005h2c0.553,0,1-0.447,1-1v-13c0-0.553-0.447-1-1-1H7c-0.553,0-1,0.447-1,1v13
			C6,27.558,6.447,28.005,7,28.005z M7,14.004h2v13H7V14.004z"/>
		<path class="st0" d="M13,28.005h2c0.553,0,1-0.447,1-1v-13c0-0.553-0.447-1-1-1h-2c-0.553,0-1,0.447-1,1v13
			C12,27.558,12.447,28.005,13,28.005z M13,14.004h2v13h-2V14.004z"/>
		<path class="st0" d="M19,28.005h2c0.553,0,1-0.447,1-1v-13c0-0.553-0.447-1-1-1h-2c-0.553,0-1,0.447-1,1v13
			C18,27.558,18.447,28.005,19,28.005z M19,14.004h2v13h-2V14.004z"/>
	</g>
</g>
</svg>
