<?xml version="1.0" encoding="utf-8"?>
<!-- Generator: Adobe Illustrator 21.0.2, SVG Export Plug-In . SVG Version: 6.00 Build 0)  -->
<svg version="1.1" id="Capa_1" xmlns="http://www.w3.org/2000/svg" xmlns:xlink="http://www.w3.org/1999/xlink" x="0px" y="0px"
	 viewBox="0 0 561 382.5" style="enable-background:new 0 0 561 382.5;" xml:space="preserve">
<g>
	<g id="visibility">
		<path d="M280.5,0C153,0,43.3,79.1,0,191.3c43.3,112.2,153,191.3,280.5,191.3s237.2-79,280.5-191.3C517.7,79.1,408,0,280.5,0z
			 M280.5,318.8c-71.4,0-127.5-56.1-127.5-127.5S209.1,63.8,280.5,63.8S408,119.9,408,191.3S351.9,318.8,280.5,318.8z M280.5,114.8
			c-43.4,0-76.5,33.1-76.5,76.5s33.1,76.5,76.5,76.5s76.5-33.1,76.5-76.5S323.9,114.8,280.5,114.8z"/>
	</g>
</g>
</svg>
