<?xml version="1.0" encoding="utf-8"?>
<!-- Generator: Adobe Illustrator 21.0.2, SVG Export Plug-In . SVG Version: 6.00 Build 0)  -->
<svg version="1.1" id="Layer_1" xmlns="http://www.w3.org/2000/svg" xmlns:xlink="http://www.w3.org/1999/xlink" x="0px" y="0px"
	 viewBox="0 0 371.986 512" style="enable-background:new 0 0 371.986 512;" xml:space="preserve">
<g>
	<g>
		<path d="M355.291,51.358h-91.455V16.696C263.836,7.476,256.361,0,247.14,0H124.847c-9.22,0-16.696,7.475-16.696,16.696v34.662
			H16.696C7.476,51.358,0,58.833,0,68.054v51.357c0,9.22,7.475,16.696,16.696,16.696h338.593c9.22,0,16.696-7.475,16.696-16.696
			V68.054C371.986,58.832,364.511,51.358,355.291,51.358z M230.443,51.358h-88.9V33.391h88.9V51.358z"/>
	</g>
</g>
<g>
	<g>
		<path d="M23.185,169.497l13.844,326.516c0.378,8.937,7.735,15.988,16.68,15.988h264.568c8.945,0,16.302-7.051,16.68-15.989
			L348.8,169.497L23.185,169.497L23.185,169.497z M135.523,444.105c0,9.22-7.475,16.696-16.696,16.696
			c-9.22,0-16.696-7.475-16.696-16.696V237.391c0-9.22,7.475-16.696,16.696-16.696c9.22,0,16.696,7.475,16.696,16.696V444.105z
			 M202.686,444.105c0,9.22-7.475,16.696-16.696,16.696s-16.696-7.475-16.696-16.696V237.391c0-9.22,7.475-16.696,16.696-16.696
			s16.696,7.475,16.696,16.696V444.105z M269.849,444.105c0,9.22-7.475,16.696-16.696,16.696c-9.221,0-16.696-7.475-16.696-16.696
			V237.391c0-9.22,7.475-16.696,16.696-16.696c9.221,0,16.696,7.475,16.696,16.696L269.849,444.105L269.849,444.105z"/>
	</g>
</g>
</svg>
