<?xml version="1.0" encoding="utf-8"?>
<!-- Generator: Adobe Illustrator 21.0.2, SVG Export Plug-In . SVG Version: 6.00 Build 0)  -->
<svg version="1.1" id="Layer_1" xmlns="http://www.w3.org/2000/svg" xmlns:xlink="http://www.w3.org/1999/xlink" x="0px" y="0px"
	 viewBox="0 0 371.984 512" style="enable-background:new 0 0 371.984 512;" xml:space="preserve">
<g>
	<g>
		<path d="M355.29,51.358h-91.455V16.696C263.835,7.476,256.36,0,247.139,0H124.847c-9.22,0-16.696,7.475-16.696,16.696v34.662
			H16.696C7.476,51.358,0,58.833,0,68.054v51.357c0,9.22,7.475,16.696,16.696,16.696h5.072l15.26,359.906
			c0.378,8.937,7.735,15.988,16.68,15.988h264.568c8.946,0,16.302-7.051,16.68-15.989l15.259-359.906h5.073
			c9.22,0,16.696-7.475,16.696-16.696V68.054C371.986,58.832,364.511,51.358,355.29,51.358z M141.543,33.391h88.9v17.967h-88.9
			V33.391z M302.275,478.609H69.711L55.189,136.107h261.606L302.275,478.609z M338.594,102.715c-15.17,0-296.114,0-305.202,0V84.749
			h305.202V102.715z"/>
	</g>
</g>
<g>
	<g>
		<path d="M118.827,187.304c-9.22,0-16.696,7.475-16.696,16.696v206.714c0,9.22,7.475,16.696,16.696,16.696
			c9.22,0,16.696-7.475,16.696-16.696V204C135.522,194.779,128.047,187.304,118.827,187.304z"/>
	</g>
</g>
<g>
	<g>
		<path d="M185.99,187.304c-9.22,0-16.696,7.475-16.696,16.696v206.714c0,9.22,7.474,16.696,16.696,16.696
			c9.22,0,16.696-7.475,16.696-16.696V204C202.685,194.779,195.21,187.304,185.99,187.304z"/>
	</g>
</g>
<g>
	<g>
		<path d="M253.153,187.304c-9.22,0-16.696,7.475-16.696,16.696v206.714c0,9.22,7.475,16.696,16.696,16.696
			s16.696-7.475,16.696-16.696V204C269.849,194.779,262.374,187.304,253.153,187.304z"/>
	</g>
</g>
</svg>
