<?xml version="1.0" encoding="utf-8"?>
<svg version="1.1" id="Слой_1" xmlns="http://www.w3.org/2000/svg" xmlns:xlink="http://www.w3.org/1999/xlink" x="0px" y="0px"
	 viewBox="0 0 40 31.4" style="enable-background:new 0 0 40 31.4;" xml:space="preserve">
<path d="M11.4,25v4.3c0,0.6-0.2,1.1-0.6,1.5s-0.9,0.6-1.5,0.6H2.1c-0.6,0-1.1-0.2-1.5-0.6S0,29.9,0,29.3V25c0-0.6,0.2-1.1,0.6-1.5
	s0.9-0.6,1.5-0.6h7.1c0.6,0,1.1,0.2,1.5,0.6S11.4,24.4,11.4,25z M11.4,13.6v4.3c0,0.6-0.2,1.1-0.6,1.5S9.9,20,9.3,20H2.1
	c-0.6,0-1.1-0.2-1.5-0.6S0,18.5,0,17.9v-4.3c0-0.6,0.2-1.1,0.6-1.5s0.9-0.6,1.5-0.6h7.1c0.6,0,1.1,0.2,1.5,0.6S11.4,13,11.4,13.6z
	 M40,25v4.3c0,0.6-0.2,1.1-0.6,1.5s-0.9,0.6-1.5,0.6H16.4c-0.6,0-1.1-0.2-1.5-0.6s-0.6-0.9-0.6-1.5V25c0-0.6,0.2-1.1,0.6-1.5
	s0.9-0.6,1.5-0.6h21.4c0.6,0,1.1,0.2,1.5,0.6S40,24.4,40,25z M11.4,2.1v4.3c0,0.6-0.2,1.1-0.6,1.5c-0.4,0.4-0.9,0.6-1.5,0.6H2.1
	C1.5,8.6,1,8.4,0.6,7.9C0.2,7.5,0,7,0,6.4V2.1C0,1.5,0.2,1,0.6,0.6S1.5,0,2.1,0h7.1c0.6,0,1.1,0.2,1.5,0.6S11.4,1.5,11.4,2.1z
	 M40,13.6v4.3c0,0.6-0.2,1.1-0.6,1.5S38.5,20,37.9,20H16.4c-0.6,0-1.1-0.2-1.5-0.6s-0.6-0.9-0.6-1.5v-4.3c0-0.6,0.2-1.1,0.6-1.5
	s0.9-0.6,1.5-0.6h21.4c0.6,0,1.1,0.2,1.5,0.6S40,13,40,13.6z M40,2.1v4.3c0,0.6-0.2,1.1-0.6,1.5c-0.4,0.4-0.9,0.6-1.5,0.6H16.4
	c-0.6,0-1.1-0.2-1.5-0.6c-0.4-0.4-0.6-0.9-0.6-1.5V2.1c0-0.6,0.2-1.1,0.6-1.5S15.8,0,16.4,0h21.4c0.6,0,1.1,0.2,1.5,0.6
	S40,1.5,40,2.1z"/>
</svg>
