<?xml version="1.0" encoding="utf-8"?>
<!-- Generator: Adobe Illustrator 21.0.2, SVG Export Plug-In . SVG Version: 6.00 Build 0)  -->
<svg version="1.1" id="Capa_1" xmlns="http://www.w3.org/2000/svg" xmlns:xlink="http://www.w3.org/1999/xlink" x="0px" y="0px"
	 viewBox="0 0 331.2 465" style="enable-background:new 0 0 331.2 465;" xml:space="preserve">
<g>
	<path d="M323.7,50.4h-41c-4.1,0-7.5,3.4-7.5,7.5s3.4,7.5,7.5,7.5h33.5V450H15V65.4h33.5c4.1,0,7.5-3.4,7.5-7.5s-3.4-7.5-7.5-7.5
		h-41c-4.1,0-7.5,3.4-7.5,7.5v399.6c0,4.1,3.4,7.5,7.5,7.5h316.2c4.1,0,7.5-3.4,7.5-7.5V57.9C331.2,53.7,327.9,50.4,323.7,50.4z"/>
	<path d="M78.5,88.4h124.9c4.1,0,7.5-3.4,7.5-7.5s-3.4-7.5-7.5-7.5H86V48c0-3.1,2.5-5.7,5.7-5.7h46.6c4.1,0,7.5-3.4,7.5-7.5
		c0-10.9,8.9-19.9,19.9-19.9s19.9,8.9,19.9,19.9c0,4.1,3.4,7.5,7.5,7.5h46.6c3.1,0,5.7,2.5,5.7,5.7v25.4h-11.9
		c-4.1,0-7.5,3.4-7.5,7.5s3.4,7.5,7.5,7.5h19.4c4.1,0,7.5-3.4,7.5-7.5V48c0-11.4-9.3-20.7-20.7-20.7h-39.9
		C196.2,11.7,182.3,0,165.6,0s-30.6,11.7-34,27.4H91.7C80.3,27.4,71,36.6,71,48v32.9C71,85.1,74.4,88.4,78.5,88.4z"/>
	<path d="M78.5,418.5h36c4.1,0,7.5-3.4,7.5-7.5v-36c0-4.1-3.4-7.5-7.5-7.5h-36c-4.1,0-7.5,3.4-7.5,7.5v36
		C71,415.1,74.4,418.5,78.5,418.5z M86,382.5h21v21H86V382.5z"/>
	<path d="M252.8,385.5H144.5c-4.1,0-7.5,3.4-7.5,7.5s3.4,7.5,7.5,7.5h108.3c4.1,0,7.5-3.4,7.5-7.5S256.9,385.5,252.8,385.5z"/>
	<path d="M78.5,336h36c4.1,0,7.5-3.4,7.5-7.5v-36c0-4.1-3.4-7.5-7.5-7.5h-36c-4.1,0-7.5,3.4-7.5,7.5v36C71,332.6,74.4,336,78.5,336z
		 M86,300h21v21H86V300z"/>
	<path d="M252.8,303H144.5c-4.1,0-7.5,3.4-7.5,7.5s3.4,7.5,7.5,7.5h108.3c4.1,0,7.5-3.4,7.5-7.5S256.9,303,252.8,303z"/>
	<path d="M78.5,253.4h36c4.1,0,7.5-3.4,7.5-7.5v-36c0-4.1-3.4-7.5-7.5-7.5h-36c-4.1,0-7.5,3.4-7.5,7.5v36
		C71,250.1,74.4,253.4,78.5,253.4z M86,217.4h21v21H86V217.4z"/>
	<path d="M252.8,220.4H144.5c-4.1,0-7.5,3.4-7.5,7.5s3.4,7.5,7.5,7.5h108.3c4.1,0,7.5-3.4,7.5-7.5S256.9,220.4,252.8,220.4z"/>
	<path d="M78.5,170.9h36c4.1,0,7.5-3.4,7.5-7.5v-36c0-4.1-3.4-7.5-7.5-7.5h-36c-4.1,0-7.5,3.4-7.5,7.5v36
		C71,167.6,74.4,170.9,78.5,170.9z M86,134.9h21v21H86V134.9z"/>
	<path d="M252.8,137.9H144.5c-4.1,0-7.5,3.4-7.5,7.5s3.4,7.5,7.5,7.5h108.3c4.1,0,7.5-3.4,7.5-7.5S256.9,137.9,252.8,137.9z"/>
</g>
</svg>
