<?xml version="1.0" encoding="utf-8"?>
<svg version="1.1" id="Слой_1" xmlns="http://www.w3.org/2000/svg" xmlns:xlink="http://www.w3.org/1999/xlink" x="0px" y="0px"
	 viewBox="0 0 50 42.3" style="enable-background:new 0 0 50 42.3;" xml:space="preserve">
<path d="M19.2,38.5c0,1-0.4,1.9-1.1,2.7s-1.7,1.1-2.7,1.1s-1.9-0.4-2.7-1.1s-1.1-1.7-1.1-2.7c0-1,0.4-1.9,1.1-2.7
	c0.8-0.8,1.7-1.1,2.7-1.1s1.9,0.4,2.7,1.1C18.9,36.5,19.2,37.4,19.2,38.5z M46.2,38.5c0,1-0.4,1.9-1.1,2.7s-1.7,1.1-2.7,1.1
	c-1,0-1.9-0.4-2.7-1.1s-1.1-1.7-1.1-2.7c0-1,0.4-1.9,1.1-2.7c0.8-0.8,1.7-1.1,2.7-1.1c1,0,1.9,0.4,2.7,1.1
	C45.8,36.5,46.2,37.4,46.2,38.5z M50,5.8v15.4c0,0.5-0.2,0.9-0.5,1.3s-0.7,0.6-1.2,0.6l-31.4,3.7c0.3,1.2,0.4,1.9,0.4,2.1
	c0,0.3-0.2,1-0.7,1.9h27.6c0.5,0,1,0.2,1.4,0.6c0.4,0.4,0.6,0.8,0.6,1.4c0,0.5-0.2,1-0.6,1.4s-0.8,0.6-1.4,0.6H13.5
	c-0.5,0-1-0.2-1.4-0.6s-0.6-0.8-0.6-1.4c0-0.2,0.1-0.5,0.2-0.9c0.2-0.4,0.3-0.8,0.5-1.1c0.2-0.3,0.4-0.7,0.6-1.2
	c0.3-0.5,0.4-0.8,0.5-0.9L8.1,3.8H1.9c-0.5,0-1-0.2-1.4-0.6S0,2.4,0,1.9s0.2-1,0.6-1.4S1.4,0,1.9,0h7.7c0.3,0,0.6,0.1,0.9,0.2
	c0.3,0.1,0.4,0.3,0.6,0.5c0.1,0.2,0.3,0.4,0.4,0.7s0.2,0.6,0.2,0.8c0,0.2,0.1,0.5,0.2,0.9C11.9,3.4,12,3.7,12,3.8h36.1
	c0.5,0,1,0.2,1.4,0.6C49.8,4.8,50,5.2,50,5.8z"/>
</svg>
